<svg width="1132" xmlns="http://www.w3.org/2000/svg" height="804" xmlns:xlink="http://www.w3.org/1999/xlink" viewBox="0 0 1132 804" xmlns:ev="http://www.w3.org/2001/xml-events"><style type="text/css"><![CDATA[
.st9 {fill:#000000;font-family:宋体;font-size:6pt;font-weight:bold}
.st3 {fill:#000000;font-family:宋体;font-size:6pt}
.st7 {fill:#1f6391;font-family:宋体;font-size:10pt;font-style:italic}
.st10 {fill:#1f6391;font-family:宋体;font-size:8pt;font-style:italic}
.st4 {fill:#ff0000;font-family:宋体;font-size:8pt;font-weight:bold}
.st1 {fill:#ff0000;font-family:宋体;font-size:8pt}
.st8 {fill:#ffffff;font-family:宋体;font-size:6pt;font-style:italic}
.st6 {fill:#ffffff;font-family:宋体;font-size:6pt;font-weight:bold}
.st5 {fill:#ffffff;font-family:宋体;font-size:6pt}
.st2 {font-weight:bold}
]]></style><defs/><g transform="translate(5,5)" id="page1"><rect fill="#ffffff" y="0" width="1123" height="794" x="0" stroke="#808080"/><g transform="translate(631,301.46)" id="shape1"><text class="st1"><tspan y="14" class="st2" x="4">二、对于情况②：</tspan><tspan>返回了false，那么后续的触摸事件</tspan><tspan y="27" x="4">就不会再传递进来了。</tspan></text></g><g transform="translate(369,317)"><path d="M89,51.2L178,25.6L89,0L0,25.6L89,51.2z" fill="#ffc000" id="shape2" stroke="#3498db"/><text class="st3"><tspan y="14.6" x="61">(（View）this)</tspan><tspan y="23.6" x="51">.dispatchTouchEvent</tspan><tspan y="32.6" x="87">=</tspan><tspan y="41.6" class="st2" x="59">onTouchEvent</tspan></text></g><g transform="translate(567.66,55)"><g transform="translate(45.54,0)" id="shape3"><text class="st4"><tspan y="20" x="5.4">一、情况①：</tspan></text></g><g transform="translate(7.54,54.5)"><path d="M-7.5,30.2L53.5,30.2L68.5,0L7.5,0L-7.5,30.2z" fill="#16a58a" id="shape4" stroke="#3498db"/><text class="st5"><tspan y="13.1" x="9">ACTION_MOVE</tspan><tspan y="22.1" x="9">、ACTION_UP</tspan></text></g><g transform="translate(116.34,54.5)"><path d="M110,31.3L110,0L0,0L0,31.3L110,31.3z" fill="#476482" id="shape5" stroke="#3498db"/><text class="st6"><tspan y="18.1" x="10">dispatchTouchEvent</tspan></text></g><g transform="translate(68.54,69.59)" id="shape6"><path d="M0,0L31.8,0L43.4,.4" fill="none" stroke="#236ea1"/><path d="M47.8,.5L42.7,-2.6C43.2,-1.7,43.4,-0.7,43.4,.4C43.4,1.5,43,2.5,42.5,3.4L47.8,.5" fill="#236ea1" stroke-linecap="round" stroke-width="1" stroke="#236ea1"/></g><g transform="translate(171.34,85.76)" id="shape7"><path d="M0,0L0,24.9" fill="none" stroke="#236ea1"/><path d="M0,29.2L3,24C2.1,24.6,1.1,24.9,0,24.9C-1.1,24.9,-2.1,24.6,-3,24L0,29.2" fill="#236ea1" stroke-linecap="round" stroke-width="1" stroke="#236ea1"/></g><g transform="translate(91.84,115)"><path d="M79.5,51.2L159,25.6L79.5,0L0,25.6L79.5,51.2z" fill="#ffc000" id="shape8" stroke="#3498db"/><text class="st3"><tspan y="14.6" x="52">(（View）this)</tspan><tspan y="23.6" x="42">.dispatchTouchEvent</tspan><tspan y="32.6" x="78">=</tspan><tspan y="41.6" class="st2" x="50">onTouchEvent</tspan></text></g><g transform="translate(114.78,209.87)"><path d="M7.5,15.1L43.1,15.1C47.3,15.1,50.7,11.7,50.7,7.5C50.7,3.4,47.3,0,43.1,0L7.5,0C3.4,0,0,3.4,0,7.5C0,11.7,3.4,15.1,7.5,15.1z" fill="#ff0000" id="shape9" stroke="#3498db"/><text class="st5"><tspan y="10" x="13.3">①true</tspan></text></g><g transform="translate(175.68,209.87)"><path d="M7.5,15.1L43.1,15.1C47.3,15.1,50.7,11.7,50.7,7.5C50.7,3.4,47.3,0,43.1,0L7.5,0C3.4,0,0,3.4,0,7.5C0,11.7,3.4,15.1,7.5,15.1z" fill="#ff0000" id="shape10" stroke="#3498db"/><text class="st5"><tspan y="10" x="11.3">①false</tspan></text></g><g transform="translate(171.34,166.2)" id="shape11"><path d="M0,0L0,27.7L-31.2,27.7L-31.2,39.3" fill="none" stroke="#236ea1"/><path d="M-31.2,43.7L-28.2,38.5C-29.1,39,-30.1,39.3,-31.2,39.3C-32.3,39.3,-33.3,39,-34.2,38.5L-31.2,43.7" fill="#236ea1" stroke-linecap="round" stroke-width="1" stroke="#236ea1"/></g><g transform="translate(171.34,166.2)" id="shape12"><path d="M0,0L0,27.7L29.7,27.7L29.7,39.3" fill="none" stroke="#236ea1"/><path d="M29.7,43.7L32.7,38.5C31.8,39,30.8,39.3,29.7,39.3C28.6,39.3,27.6,39,26.7,38.5L29.7,43.7" fill="#236ea1" stroke-linecap="round" stroke-width="1" stroke="#236ea1"/></g></g><g transform="translate(58.18,55)"><g transform="translate(147.66,0)"><path d="M88.2,31.3L88.2,0L0,0L0,31.3L88.2,31.3z" fill="#3a526b" id="shape13" stroke="#3498db"/><text class="st6"><tspan y="13.6" x="9.1">dispatchTouchE</tspan><tspan y="22.6" x="34.1">vent</tspan></text></g><g transform="translate(101.85,15.63)" id="shape14"><path d="M0,0L41.4,0" fill="none" stroke="#236ea1"/><path d="M45.8,0L40.6,-3C41.1,-2.1,41.4,-1.1,41.4,0C41.4,1.1,41.1,2.1,40.6,3L45.8,0" fill="#236ea1" stroke-linecap="round" stroke-width="1" stroke="#236ea1"/></g><g transform="translate(43.11,0.54)"><path d="M-7.5,30.2L43.1,30.2L58.2,0L7.5,0L-7.5,30.2z" fill="#16a58a" id="shape15" stroke="#3498db"/><text class="st5"><tspan y="13.1" x="9.3">ACTION_D</tspan><tspan y="22.1" x="19.3">OWN</tspan></text></g><g transform="translate(146.04,58)"><path d="M44.4,39.5L88.8,19.8L44.4,0L0,19.8L44.4,39.5z" fill="#ffc000" id="shape16" stroke="#3498db"/><text class="st3"><tspan y="22.3" x="10.4">disallowIntercept</tspan></text></g><g transform="translate(4.85,122.33)"><path d="M103,41.7L103,0L0,0L0,41.7L103,41.7z" fill="#3a526b" id="shape17" stroke="#3498db"/><text class="st5"><tspan y="9.8" x="23.5">(（View）this)</tspan><tspan y="18.8" x="13.5">.dispatchTouchEvent</tspan><tspan y="27.8" x="49.5">=</tspan><tspan y="36.8" class="st2" x="21.5">onTouchEvent</tspan></text></g><g transform="translate(146.04,77.77)" id="shape18"><path d="M0,0L-89.7,0L-89.7,40.2" fill="none" stroke="#236ea1"/><path d="M-89.7,44.6L-86.7,39.4C-87.6,39.9,-88.6,40.2,-89.7,40.2C-90.8,40.2,-91.8,39.9,-92.7,39.4L-89.7,44.6" fill="#236ea1" stroke-linecap="round" stroke-width="1" stroke="#236ea1"/><rect fill="#ffffff" y="-7.5" width="28.6" height="15" x="-33.3"/><text class="st7"><tspan y="4.5" x="-33.5">true</tspan></text></g><g transform="translate(240.82,119.64)"><path d="M136,33.4L136,0L0,0L0,33.4L136,33.4z" fill="#3a526b" id="shape19" stroke="#3498db"/><text class="st5"><tspan y="14.7" x="50">for.each:</tspan><tspan y="23.7" class="st2" x="8">child.dispatchTouchEvent</tspan></text></g><g transform="translate(234.82,77.77)" id="shape20"><path d="M0,0L74,0L74,37.5" fill="none" stroke="#236ea1"/><path d="M74,41.9L77,36.7C76.1,37.2,75.1,37.5,74,37.5C72.9,37.5,71.9,37.2,71,36.7L74,41.9" fill="#236ea1" stroke-linecap="round" stroke-width="1" stroke="#236ea1"/><rect fill="#ffffff" y="-7.5" width="35.8" height="15" x="3.2"/><text class="st7"><tspan y="4.5" x="3">false</tspan></text></g><g transform="translate(0,224.72)"><path d="M7.5,15.1L43.1,15.1C47.3,15.1,50.7,11.7,50.7,7.5C50.7,3.4,47.3,0,43.1,0L7.5,0C3.4,0,0,3.4,0,7.5C0,11.7,3.4,15.1,7.5,15.1z" fill="#ff0000" id="shape21" stroke="#3498db"/><text class="st5"><tspan y="10" x="13.3">①true</tspan></text></g><g transform="translate(60.9,224.72)"><path d="M7.5,15.1L43.1,15.1C47.3,15.1,50.7,11.7,50.7,7.5C50.7,3.4,47.3,0,43.1,0L7.5,0C3.4,0,0,3.4,0,7.5C0,11.7,3.4,15.1,7.5,15.1z" fill="#ff0000" id="shape22" stroke="#3498db"/><text class="st5"><tspan y="10" x="11.3">②false</tspan></text></g><g transform="translate(56.34,164)" id="shape23"><path d="M0,0L0,28.7L-31,28.7L-31,56.3" fill="none" stroke="#236ea1"/><path d="M-31,60.7L-28,55.5C-28.9,56,-29.9,56.3,-31,56.3C-32.1,56.3,-33.1,56,-34,55.5L-31,60.7" fill="#236ea1" stroke-linecap="round" stroke-width="1" stroke="#236ea1"/></g><g transform="translate(56.34,164)" id="shape24"><path d="M0,0L0,28.7L29.9,28.7L29.9,56.3" fill="none" stroke="#236ea1"/><path d="M29.9,60.7L32.9,55.5C32,56,31,56.3,29.9,56.3C28.8,56.3,27.8,56,26.9,55.5L29.9,60.7" fill="#236ea1" stroke-linecap="round" stroke-width="1" stroke="#236ea1"/></g><g transform="translate(187.82,224.72)"><path d="M17,34L87.8,34C97.2,34,104.8,26.4,104.8,17C104.8,7.6,97.2,0,87.8,0L17,0C7.6,0,0,7.6,0,17C0,26.4,7.6,34,17,34z" fill="#ff0000" id="shape25" stroke="#3498db"/><text class="st5"><tspan y="10.5" x="40.4">③true</tspan><tspan y="19.5" x="30.4">(break for;</tspan><tspan y="28.5" x="10.4">firstTarget = child;)</tspan></text></g><g transform="translate(308.82,153)" id="shape26"><path d="M0,0L0,39.7L-68.6,39.7L-68.6,67.3" fill="none" stroke="#236ea1"/><path d="M-68.6,71.7L-65.6,66.5C-66.5,67,-67.5,67.3,-68.6,67.3C-69.7,67.3,-70.7,67,-71.6,66.5L-68.6,71.7" fill="#236ea1" stroke-linecap="round" stroke-width="1" stroke="#236ea1"/></g><g transform="translate(347.82,209.63)"><g id="shape27"><path d="M104,30.2L104,0L0,0L0,30.2L104,30.2z" fill="#9b9b9b"/><path d="M104,30.2L104,0L0,0L0,30.2L104,30.2zM14,30.2L14,0L14,30.2zM90,30.2L90,0L90,30.2z" fill="none" stroke="#83b3e3"/></g><text class="st8"><tspan y="17.6" x="42">false</tspan></text></g><g transform="translate(308.82,153)" id="shape28"><path d="M0,0L0,24.6L91,24.6L91,52.2" fill="none" stroke="#236ea1"/><path d="M91,56.6L94,51.4C93.1,51.9,92.1,52.2,91,52.2C89.9,52.2,88.9,51.9,88,51.4L91,56.6" fill="#236ea1" stroke-linecap="round" stroke-width="1" stroke="#236ea1"/></g><g transform="translate(399.82,239.81)" id="shape29"><path d="M0,0L0,17.8" fill="none" stroke="#236ea1"/><path d="M0,22.2L3,17C2.1,17.5,1.1,17.8,0,17.8C-1.1,17.8,-2.1,17.5,-3,17L0,22.2" fill="#236ea1" stroke-linecap="round" stroke-width="1" stroke="#236ea1"/></g><g transform="translate(344.09,350.29)"><path d="M7.5,15.1L43.1,15.1C47.3,15.1,50.7,11.7,50.7,7.5C50.7,3.4,47.3,0,43.1,0L7.5,0C3.4,0,0,3.4,0,7.5C0,11.7,3.4,15.1,7.5,15.1z" fill="#ff0000" id="shape30" stroke="#3498db"/><text class="st5"><tspan y="10" x="13.3">①true</tspan></text></g><g transform="translate(404.99,350.29)"><path d="M7.5,15.1L43.1,15.1C47.3,15.1,50.7,11.7,50.7,7.5C50.7,3.4,47.3,0,43.1,0L7.5,0C3.4,0,0,3.4,0,7.5C0,11.7,3.4,15.1,7.5,15.1z" fill="#ff0000" id="shape31" stroke="#3498db"/><text class="st5"><tspan y="10" x="11.3">②false</tspan></text></g><g transform="translate(399.82,313.2)" id="shape32"><path d="M0,0L0,21.1L-30.4,21.1L-30.4,32.7" fill="none" stroke="#236ea1"/><path d="M-30.4,37.1L-27.4,31.9C-28.3,32.4,-29.3,32.7,-30.4,32.7C-31.5,32.7,-32.5,32.4,-33.4,31.9L-30.4,37.1" fill="#236ea1" stroke-linecap="round" stroke-width="1" stroke="#236ea1"/></g><g transform="translate(399.82,313.2)" id="shape33"><path d="M0,0L0,21.1L30.5,21.1L30.5,32.7" fill="none" stroke="#236ea1"/><path d="M30.5,37.1L33.5,31.9C32.6,32.4,31.6,32.7,30.5,32.7C29.4,32.7,28.4,32.4,27.5,31.9L30.5,37.1" fill="#236ea1" stroke-linecap="round" stroke-width="1" stroke="#236ea1"/></g><g transform="translate(191.74,31.26)" id="shape34"><path d="M0,0L0,10.7L-1.3,10.7L-1.3,22.4" fill="none" stroke="#236ea1"/><path d="M-1.3,26.7L1.7,21.5C.8,22.1,-0.2,22.4,-1.3,22.4C-2.4,22.4,-3.4,22.1,-4.3,21.5L-1.3,26.7" fill="#236ea1" stroke-linecap="round" stroke-width="1" stroke="#236ea1"/></g></g><g transform="translate(434.37,359)"><g transform="translate(196.63,-0)" id="shape35"><text class="st4"><tspan y="20" x="4">三、情况③：</tspan></text></g><g transform="translate(204.67,60.54)"><path d="M-7.5,30.2L53.5,30.2L68.5,0L7.5,0L-7.5,30.2z" fill="#16a58a" id="shape36" stroke="#3498db"/><text class="st5"><tspan y="13.1" x="9">ACTION_MOVE</tspan><tspan y="22.1" x="9">、ACTION_UP</tspan></text></g><g transform="translate(313.63,60.54)"><path d="M106,31.3L106,0L0,0L0,31.3L106,31.3z" fill="#476482" id="shape37" stroke="#3498db"/><text class="st6"><tspan y="18.1" x="8">dispatchTouchEvent</tspan></text></g><g transform="translate(265.67,75.63)" id="shape38"><path d="M0,0L32,0L43.6,.4" fill="none" stroke="#236ea1"/><path d="M48,.5L42.9,-2.6C43.3,-1.7,43.6,-0.7,43.6,.4C43.5,1.5,43.2,2.5,42.7,3.4L48,.5" fill="#236ea1" stroke-linecap="round" stroke-width="1" stroke="#236ea1"/></g><g transform="translate(322.49,123.88)"><path d="M44.4,39.5L88.8,19.8L44.4,0L0,19.8L44.4,39.5z" fill="#ffc000" id="shape39" stroke="#3498db"/><text class="st3"><tspan y="22.3" x="10.4">disallowIntercept</tspan></text></g><g transform="translate(322.49,143.65)" id="shape40"><path d="M0,0L-138.9,0L-138.9,79.4" fill="none" stroke="#236ea1"/><path d="M-138.9,83.8L-135.9,78.6C-136.7,79.1,-137.8,79.4,-138.9,79.4C-139.9,79.4,-141,79.1,-141.9,78.6L-138.9,83.8" fill="#236ea1" stroke-linecap="round" stroke-width="1" stroke="#236ea1"/><rect fill="#ffffff" y="-7.5" width="28.6" height="15" x="-33.3"/><text class="st7"><tspan y="4.5" x="-33.5">true</tspan></text></g><g transform="translate(411.27,143.65)" id="shape41"><path d="M0,0L120.1,0L120.1,80.4" fill="none" stroke="#236ea1"/><path d="M120.1,84.8L123.1,79.6C122.3,80.1,121.2,80.4,120.1,80.4C119,80.4,118,80.1,117.1,79.6L120.1,84.8" fill="#236ea1" stroke-linecap="round" stroke-width="1" stroke="#236ea1"/><rect fill="#ffffff" y="-7.5" width="35.8" height="15" x="3.2"/><text class="st7"><tspan y="4.5" x="3">false</tspan></text></g><g transform="translate(366.63,91.8)" id="shape42"><path d="M0,0L0,16.1L.2,27.7" fill="none" stroke="#236ea1"/><path d="M.2,32.1L3.2,26.8C2.3,27.4,1.3,27.7,.2,27.7C-0.9,27.7,-1.9,27.4,-2.8,26.9L.2,32.1" fill="#236ea1" stroke-linecap="round" stroke-width="1" stroke="#236ea1"/></g><g transform="translate(484.4,228.42)"><path d="M94,30L94,0L0,0L0,30L94,30z" fill="#ff0000" id="shape43" stroke="#3498db"/><text class="st5"><tspan y="13" x="21">③firstTarget</tspan><tspan y="22" x="9">.dispatchTouchEvent</tspan></text></g><g transform="translate(117.63,227.42)"><path d="M66,35L132,17.5L66,0L0,17.5L66,35z" fill="#ffc000" id="shape44" stroke="#3498db"/><text class="st9"><tspan y="20" x="14">onInterceptTouchEvent</tspan></text></g><g transform="translate(-0,305.92)"><path d="M105.6,49.1L105.6,0L0,0L0,49.1L105.6,49.1z" fill="#ff0000" id="shape45" stroke="#3498db"/><text class="st5"><tspan y="13.5" x="49.3">①</tspan><tspan y="22.5" x="17.3">(给firstTarget发送</tspan><tspan y="31.5" x="17.3">ACTION_CANCEL事件;</tspan><tspan y="40.5" x="13.3">firstTarget = null;)</tspan></text></g><g transform="translate(262.4,314.42)"><path d="M94,35L94,0L0,0L0,35L94,35z" fill="#ff0000" id="shape46" stroke="#3498db"/><text class="st5"><tspan y="15.5" x="21">③firstTarget</tspan><tspan y="24.5" x="9">.dispatchTouchEvent</tspan></text></g><g transform="translate(117.63,244.92)" id="shape47"><path d="M0,0L-64.8,0L-64.8,56.6" fill="none" stroke="#236ea1"/><path d="M-64.8,61L-61.8,55.8C-62.7,56.3,-63.7,56.6,-64.8,56.6C-65.9,56.6,-66.9,56.3,-67.8,55.8L-64.8,61" fill="#236ea1" stroke-linecap="round" stroke-width="1" stroke="#236ea1"/><rect fill="#ffffff" y="-6.5" width="24.5" height="13" x="-31.8"/><text class="st10"><tspan y="3.5" x="-32">true</tspan></text></g><g transform="translate(249.63,244.92)" id="shape48"><path d="M0,0L59.8,0L59.8,65.1" fill="none" stroke="#236ea1"/><path d="M59.8,69.5L62.8,64.3C61.9,64.8,60.9,65.1,59.8,65.1C58.7,65.1,57.6,64.8,56.8,64.3L59.8,69.5" fill="#236ea1" stroke-linecap="round" stroke-width="1" stroke="#236ea1"/><rect fill="#ffffff" y="-6.5" width="30.7" height="13" x="5.2"/><text class="st10"><tspan y="3.5" x="5">false</tspan></text></g></g></g></svg>